<svg viewBox="0 0 121 230" xmlns="http://www.w3.org/2000/svg">
 <g>
  <title>Layer 1</title>
  <g id="main" fill="none">
   <g id="svg_1">
    <path d="m0.006,50.509998c13.36899,19.213001 19.81499,42.095005 19.81499,64.290005c0,23.654999 -6.937,45.977997 -19.769,64.313995l13.949001,8.052002c14.207,-20.802002 21.895997,-45.871002 21.895997,-72.365997c0,-26.497002 -7.687998,-51.568005 -21.896997,-72.369003l-13.99999,8.09l0.00601,-0.011002l-0.00001,0z" id="svg_2"/>
    <path d="m36.795998,29.26701c17.308002,25.714001 25.63802,56.077 25.63802,85.533001c0,29.457985 -8.330017,59.818993 -25.639008,85.532005l13.972,8.065979c18.02998,-27.015991 27.743,-59.409988 27.743,-93.598991s-9.713989,-66.581993 -27.745003,-93.596994l-13.969997,8.064001l0.000988,0.000999z" id="svg_3"/>
    <g id="svg_4">
     <path d="m73.546013,8.051c21.259979,32.204001 31.503998,70.032008 31.503998,106.75001c0,36.715988 -10.244019,74.543991 -31.503998,106.75l13.940979,8.048981c21.860023,-33.22998 33.640007,-72.919998 33.640007,-114.799988s-11.778015,-81.575005 -33.641998,-114.800003l-13.939995,8.051l0.001007,0z" id="svg_5"/>
    </g>
   </g>
  </g>
 </g>
</svg>
